<svg width="18" height="19" viewBox="0 0 18 19" fill="none" xmlns="http://www.w3.org/2000/svg">
<path fill-rule="evenodd" clip-rule="evenodd" d="M6.24219 4.36377C4.89599 4.36377 3.80469 5.45508 3.80469 6.80127V12.8013C3.80469 14.1475 4.89599 15.2388 6.24219 15.2388H12.2422C13.5884 15.2388 14.6797 14.1475 14.6797 12.8013V6.80127C14.6797 5.45508 13.5884 4.36377 12.2422 4.36377H6.24219ZM2.67969 6.80127C2.67969 4.83376 4.27467 3.23877 6.24219 3.23877H12.2422C14.2097 3.23877 15.8047 4.83376 15.8047 6.80127V12.8013C15.8047 14.7688 14.2097 16.3638 12.2422 16.3638H6.24219C4.27467 16.3638 2.67969 14.7688 2.67969 12.8013V6.80127ZM9.24219 8.11377C8.31021 8.11377 7.55469 8.86929 7.55469 9.80127C7.55469 10.7333 8.31021 11.4888 9.24219 11.4888C10.1742 11.4888 10.9297 10.7333 10.9297 9.80127C10.9297 8.86929 10.1742 8.11377 9.24219 8.11377ZM6.42969 9.80127C6.42969 8.24797 7.68889 6.98877 9.24219 6.98877C10.7955 6.98877 12.0547 8.24797 12.0547 9.80127C12.0547 11.3546 10.7955 12.6138 9.24219 12.6138C7.68889 12.6138 6.42969 11.3546 6.42969 9.80127ZM13.1797 6.42627C13.1797 6.11561 12.9278 5.86377 12.6172 5.86377C12.3065 5.86377 12.0547 6.11561 12.0547 6.42627V6.42727C12.0547 6.73793 12.3065 6.98977 12.6172 6.98977C12.9278 6.98977 13.1797 6.73793 13.1797 6.42727V6.42627Z" fill="#282828"/>
</svg>
