<svg width="18" height="19" viewBox="0 0 18 19" fill="none" xmlns="http://www.w3.org/2000/svg">
<path d="M16.2275 3.76984C15.4775 4.13734 14.7425 4.28659 13.9775 4.51234C13.1368 3.56359 11.8903 3.51109 10.6925 3.95959C9.49479 4.40809 8.71029 5.50459 8.72754 6.76234V7.51234C6.29379 7.57459 4.12629 6.46609 2.72754 4.51234C2.72754 4.51234 -0.408961 10.0871 5.72754 12.7623C4.32354 13.6976 2.92329 14.3283 1.22754 14.2623C3.70854 15.6146 6.41229 16.0796 8.75304 15.4001C11.438 14.6201 13.6445 12.6078 14.4913 9.59359C14.7439 8.67684 14.8693 7.72973 14.864 6.77884C14.8625 6.59209 15.9965 4.69984 16.2275 3.76909V3.76984Z" stroke="#282828" stroke-width="1.125" stroke-linecap="round" stroke-linejoin="round"/>
</svg>
